<svg width="25" height="25" viewBox="0 0 25 25" fill="none" xmlns="http://www.w3.org/2000/svg">
<path fill-rule="evenodd" clip-rule="evenodd" d="M7.20239 12.1734C7.20239 10.7589 7.7643 9.40232 8.76449 8.40212C9.76468 7.40193 11.1212 6.84003 12.5357 6.84003C13.9502 6.84003 15.3068 7.40193 16.307 8.40212C17.3072 9.40232 17.8691 10.7589 17.8691 12.1734C17.8691 13.5878 17.3072 14.9444 16.307 15.9446C15.3068 16.9448 13.9502 17.5067 12.5357 17.5067C11.1212 17.5067 9.76468 16.9448 8.76449 15.9446C7.7643 14.9444 7.20239 13.5878 7.20239 12.1734ZM12.5357 13.5067C12.1821 13.5067 11.843 13.3662 11.5929 13.1162C11.3429 12.8661 11.2024 12.527 11.2024 12.1734C11.2024 11.8197 11.3429 11.4806 11.5929 11.2306C11.843 10.9805 12.1821 10.84 12.5357 10.84C12.8893 10.84 13.2285 10.9805 13.4785 11.2306C13.7286 11.4806 13.8691 11.8197 13.8691 12.1734C13.8691 12.527 13.7286 12.8661 13.4785 13.1162C13.2285 13.3662 12.8893 13.5067 12.5357 13.5067Z" fill="url(#paint0_linear_430_4081)"/>
<path fill-rule="evenodd" clip-rule="evenodd" d="M0.535645 12.1733C0.535645 10.5975 0.846034 9.03705 1.44909 7.58114C2.05215 6.12523 2.93606 4.80236 4.05036 3.68806C5.16467 2.57376 6.48754 1.68984 7.94344 1.08679C9.39935 0.483729 10.9598 0.17334 12.5356 0.17334C14.1115 0.17334 15.6719 0.483729 17.1278 1.08679C18.5838 1.68984 19.9066 2.57376 21.0209 3.68806C22.1352 4.80236 23.0191 6.12523 23.6222 7.58114C24.2253 9.03705 24.5356 10.5975 24.5356 12.1733C24.5356 15.3559 23.2714 18.4082 21.0209 20.6586C18.7705 22.9091 15.7182 24.1733 12.5356 24.1733C9.35305 24.1733 6.3008 22.9091 4.05036 20.6586C1.79993 18.4082 0.535645 15.3559 0.535645 12.1733ZM12.5356 21.5067C11.31 21.5067 10.0963 21.2653 8.96393 20.7962C7.83156 20.3272 6.80266 19.6397 5.93598 18.773C5.0693 17.9063 4.38181 16.8774 3.91277 15.7451C3.44372 14.6127 3.20231 13.399 3.20231 12.1733C3.20231 10.9477 3.44372 9.734 3.91277 8.60163C4.38181 7.46926 5.0693 6.44036 5.93598 5.57368C6.80266 4.707 7.83156 4.01951 8.96393 3.55046C10.0963 3.08142 11.31 2.84001 12.5356 2.84001C15.011 2.84001 17.385 3.82334 19.1353 5.57368C20.8856 7.32402 21.869 9.69799 21.869 12.1733C21.869 14.6487 20.8856 17.0227 19.1353 18.773C17.385 20.5233 15.011 21.5067 12.5356 21.5067Z" fill="url(#paint1_linear_430_4081)"/>
<defs>
<linearGradient id="paint0_linear_430_4081" x1="1.77631" y1="-4.14222" x2="19.5374" y2="20.8901" gradientUnits="userSpaceOnUse">
<stop stop-color="#EE3524"/>
<stop offset="0.934865" stop-color="#F47B20"/>
</linearGradient>
<linearGradient id="paint1_linear_430_4081" x1="-11.6731" y1="-24.5367" x2="28.2895" y2="31.786" gradientUnits="userSpaceOnUse">
<stop stop-color="#EE3524"/>
<stop offset="0.934865" stop-color="#F47B20"/>
</linearGradient>
</defs>
</svg>
