<svg width="32" height="33" viewBox="0 0 32 33" fill="none" xmlns="http://www.w3.org/2000/svg">
<path d="M8 16.4268L16 8.42676L24 16.4268L16 24.4268L8 16.4268Z" fill="#F47B20"/>
<path d="M29.3904 14.9541L17.4744 3.03612C17.0835 2.64592 16.5537 2.42676 16.0014 2.42676C15.449 2.42676 14.9193 2.64592 14.5284 3.03612L2.60937 14.9541C2.21916 15.345 2 15.8748 2 16.4271C2 16.9795 2.21916 17.5092 2.60937 17.9001L14.5274 29.8181C14.9183 30.2083 15.448 30.4275 16.0004 30.4275C16.5527 30.4275 17.0825 30.2083 17.4734 29.8181L29.3914 17.9001C29.7816 17.5092 30.0007 16.9795 30.0007 16.4271C30.0007 15.8748 29.7816 15.345 29.3914 14.9541H29.3904ZM16.0004 28.4631L3.96537 16.4271L16.0004 4.39112L28.0364 16.4271L16.0004 28.4631Z" fill="#F47B20"/>
</svg>
