<svg width="40" height="41" viewBox="0 0 40 41" fill="none" xmlns="http://www.w3.org/2000/svg">
<g id="Iconly/Bold/Chart">
<g id="material-symbols:google-guarantee" clip-path="url(#clip0_429_1937)">
<path id="Vector" d="M21.0344 32.897C17.8948 32.897 15.2708 31.7672 13.1625 29.5075C11.0542 27.2479 10 24.5888 10 21.5304V11.6359C10 10.8827 10.2695 10.2377 10.8085 9.70085C11.3466 9.16493 11.9937 8.89697 12.75 8.89697H29.25C30.0063 8.89697 30.6539 9.16493 31.1929 9.70085C31.731 10.2377 32 10.8827 32 11.6359V14.0325C32 14.3977 31.9312 14.7455 31.7938 15.076C31.6562 15.4074 31.4615 15.6987 31.2094 15.9498L23.2687 23.8585C22.7417 24.3834 22.0945 24.6459 21.3272 24.6459C20.5591 24.6459 19.9115 24.3834 19.3844 23.8585L15.5 19.9897L17.425 18.0382L21.3438 21.907L29.25 14.0325V11.6359H12.75V21.6331C12.75 23.9612 13.5406 25.9583 15.1219 27.6245C16.7031 29.2907 18.674 30.1238 21.0344 30.1238C23.326 30.1238 25.268 29.3249 26.8602 27.7272C28.4534 26.1295 29.25 24.1894 29.25 21.907H32C32 24.9654 30.9403 27.562 28.821 29.6965C26.7008 31.8302 24.1052 32.897 21.0344 32.897Z" fill="white"/>
</g>
</g>
<defs>
<clipPath id="clip0_429_1937">
<rect width="24" height="24" fill="white" transform="translate(8 8.89697)"/>
</clipPath>
</defs>
</svg>
