<svg width="121" height="120" viewBox="0 0 121 120" fill="none" xmlns="http://www.w3.org/2000/svg">
<path d="M60.1846 28.9274L72.3438 25.7826L72.4682 26.2637L78.1996 24.7814L81.3971 29.7634L81.8153 29.495L88.599 40.0647L88.1808 40.3331L91.5717 45.6165L91.5726 45.6179L94.9459 50.9127L95.365 50.6457L102.113 61.238L101.694 61.505L104.875 66.4977L101.125 71.0783L101.509 71.3931L93.5533 81.111L93.1688 80.7962L89.1918 85.6539L89.1908 85.6552L85.1976 90.4995L85.581 90.8156L77.5925 100.507L77.209 100.191L73.4436 104.759L67.9284 102.608L67.7478 103.071L56.047 98.5069L56.2275 98.0439L50.3787 95.7627L50.3771 95.7621L44.5359 93.4613L44.3538 93.9236L32.6683 89.3208L32.8504 88.8585L27.3424 86.6889L27.6839 80.7789L27.1878 80.7502L27.9124 68.2118L28.4085 68.2405L28.7707 61.9729L28.7708 61.9713L29.1539 55.705L28.6579 55.6747L29.4245 43.1387L29.9204 43.1691L30.2817 37.2602L36.0081 35.7587L35.882 35.278L48.0307 32.0926L48.1567 32.5732L54.2294 30.9809L54.231 30.9805L60.309 29.4085L60.1846 28.9274Z" stroke="#F47B20" stroke-width="0.993822" stroke-dasharray="9.94 9.94"/>
<path d="M73.1974 15.7571L86.7648 36.8964L100.261 58.081L84.3492 77.5168L68.3721 96.8993L44.9705 87.7719L21.5995 78.5663L23.0486 53.4895L24.5816 28.4177L48.8789 22.0467L73.1974 15.7571Z" fill="#F47B20"/>
</svg>
