<svg width="187" height="218" viewBox="0 0 187 218" fill="none" xmlns="http://www.w3.org/2000/svg">
<path d="M82.5239 79.6709C88.1894 65.0603 107.723 62.4007 117.088 74.9648L138.287 103.404C147.361 115.576 140.038 133.018 124.996 135.066L90.9726 139.698C75.93 141.747 64.2112 126.897 69.6998 112.742L82.5239 79.6709Z" fill="#F47B20"/>
<path d="M86.8237 92.12L88.9611 86.608L89.6758 86.8852L90.7445 84.1292C91.1679 83.0373 91.6712 82.0159 92.2431 81.0663L91.5863 80.6708C92.8495 78.5735 94.4381 76.807 96.2448 75.3861L96.7187 75.9886C98.5249 74.5681 100.56 73.5058 102.707 72.8189L102.473 72.0887C104.726 71.3682 107.096 71.0456 109.458 71.1377L109.429 71.9037C111.681 71.9915 113.926 72.4711 116.046 73.3571L116.342 72.6497C118.463 73.5359 120.466 74.8133 122.244 76.4966L121.717 77.0533C122.522 77.8155 123.28 78.6651 123.979 79.6041L125.746 81.974L126.361 81.5158L129.894 86.2557L129.279 86.7139L132.812 91.4537L133.427 90.9955L136.96 95.7354L136.346 96.1936L139.879 100.933L140.493 100.475L144.027 105.215L143.412 105.673L145.179 108.043C145.859 108.956 146.443 109.899 146.935 110.862L147.618 110.513C148.701 112.632 149.357 114.851 149.625 117.077L148.864 117.168C149.132 119.39 148.999 121.62 148.504 123.76L149.25 123.933C148.731 126.177 147.83 128.323 146.592 130.266L145.946 129.854C144.765 131.705 143.267 133.363 141.493 134.727L141.961 135.335C140.184 136.702 138.14 137.788 135.869 138.499L135.64 137.767C134.608 138.091 133.526 138.334 132.398 138.487L129.563 138.874L129.666 139.633L123.996 140.405L123.892 139.646L118.222 140.418L118.325 141.177L112.655 141.949L112.551 141.19L106.881 141.962L106.984 142.721L101.314 143.494L101.21 142.734L98.3751 143.12C97.2468 143.274 96.1393 143.328 95.0587 143.293L95.0334 144.059C92.6548 143.981 90.3956 143.481 88.3179 142.639L88.6059 141.928C86.5322 141.088 84.6453 139.891 83.0125 138.422L82.4998 138.992C80.7874 137.452 79.3453 135.624 78.245 133.601L78.9185 133.234C77.8695 131.305 77.1442 129.192 76.8086 126.979L76.0507 127.094C75.7144 124.878 75.7536 122.564 76.2304 120.233L76.9814 120.386C77.198 119.327 77.5088 118.262 77.9205 117.201L78.9891 114.445L78.2744 114.168L80.4117 108.656L81.1265 108.933L83.2638 103.421L82.549 103.144L84.6864 97.6319L85.4011 97.9091L87.5385 92.3971L86.8237 92.12Z" stroke="#F47B20" stroke-width="1.53323" stroke-dasharray="6.13 6.13"/>
</svg>
