<svg width="37" height="29" viewBox="0 0 37 29" fill="none" xmlns="http://www.w3.org/2000/svg">
<path d="M3.83468 4.43377C6.34838 1.70865 10.1521 0.327271 15.1383 0.327271H16.93V5.37798L15.4895 5.66644C13.0349 6.15735 11.3274 7.12306 10.4137 8.54027C9.9369 9.30375 9.6665 10.1779 9.62893 11.0773H15.1383C15.6135 11.0773 16.0692 11.266 16.4052 11.602C16.7412 11.938 16.93 12.3938 16.93 12.8689V25.4106C16.93 27.3868 15.3228 28.9939 13.3466 28.9939H2.59663C2.12145 28.9939 1.66574 28.8052 1.32973 28.4692C0.993731 28.1332 0.804967 27.6775 0.804967 27.2023V18.2439L0.810342 13.0141C0.794217 12.8152 0.4538 8.1031 3.83468 4.43377ZM33.055 28.9939H22.305C21.8298 28.9939 21.3741 28.8052 21.0381 28.4692C20.7021 28.1332 20.5133 27.6775 20.5133 27.2023V18.2439L20.5187 13.0141C20.5026 12.8152 20.1621 8.1031 23.543 4.43377C26.0567 1.70865 29.8604 0.327271 34.8466 0.327271H36.6383V5.37798L35.1978 5.66644C32.7432 6.15735 31.0358 7.12306 30.122 8.54027C29.6452 9.30375 29.3748 10.1779 29.3373 11.0773H34.8466C35.3218 11.0773 35.7775 11.266 36.1135 11.602C36.4495 11.938 36.6383 12.3938 36.6383 12.8689V25.4106C36.6383 27.3868 35.0312 28.9939 33.055 28.9939Z" fill="url(#paint0_linear_430_4142)"/>
<defs>
<linearGradient id="paint0_linear_430_4142" x1="-17.4403" y1="-29.1875" x2="25.9734" y2="47.32" gradientUnits="userSpaceOnUse">
<stop stop-color="#EE3524"/>
<stop offset="0.934865" stop-color="#F47B20"/>
</linearGradient>
</defs>
</svg>
