<svg width="27" height="27" viewBox="0 0 27 27" fill="none" xmlns="http://www.w3.org/2000/svg">
<path d="M13.8532 0.523193C6.74902 0.523193 0.936523 6.33569 0.936523 13.4398C0.936523 20.544 6.74902 26.3565 13.8532 26.3565C20.9573 26.3565 26.7698 20.544 26.7698 13.4398C26.7698 6.33569 20.9573 0.523193 13.8532 0.523193ZM13.8532 23.7732C8.15693 23.7732 3.51985 19.1361 3.51985 13.4398C3.51985 7.7436 8.15693 3.10652 13.8532 3.10652C19.5494 3.10652 24.1865 7.7436 24.1865 13.4398C24.1865 19.1361 19.5494 23.7732 13.8532 23.7732ZM14.499 6.98152H12.5615V14.7315L19.2782 18.8648L20.3115 17.1857L14.499 13.6982V6.98152Z" fill="white"/>
</svg>
