<?xml version="1.0" standalone="no"?>
<!DOCTYPE svg PUBLIC "-//W3C//DTD SVG 20010904//EN"
 "http://www.w3.org/TR/2001/REC-SVG-20010904/DTD/svg10.dtd">
<svg version="1.0" xmlns="http://www.w3.org/2000/svg"
 width="123.000000pt" height="123.000000pt" viewBox="0 0 123.000000 123.000000"
 preserveAspectRatio="xMidYMid meet">
<metadata>
Created by potrace 1.14, written by Peter Selinger 2001-2017
</metadata>
<g transform="translate(0.000000,123.000000) scale(0.100000,-0.100000)"
fill="#000000" stroke="none">
<path d="M479 1215 c-457 -110 -633 -665 -320 -1007 78 -85 153 -134 261 -171
218 -76 460 -19 625 147 123 124 179 260 179 436 -1 118 -26 211 -85 311 -31
53 -32 63 -16 144 7 33 -11 53 -74 85 -69 34 -104 37 -137 14 -16 -11 -27 -13
-35 -6 -57 47 -284 74 -398 47z"/>
</g>
</svg>
