<svg width="305" height="586" viewBox="0 0 305 586" fill="none" xmlns="http://www.w3.org/2000/svg">
<path d="M49.5661 291.167C-26.0631 202.624 82.4632 142.249 177.711 136.983C232.343 131.78 241.844 68.6797 309.538 62.2706C377.231 55.8616 333.876 149.068 438.208 140.963C542.539 132.859 561.33 294.587 483.146 331.097C404.963 367.608 437.219 381.953 382.502 471.561C327.784 561.17 161.245 543.875 158.813 448.964C156.38 354.053 131.436 387.016 49.5661 291.167Z" stroke="#B21B20" stroke-opacity="0.37"/>
<path d="M254.487 295.526C246.669 287.365 256.243 264.393 272.47 265.22C287.329 265.977 297.876 256.377 307.259 255.495C331.958 253.176 325.724 260.481 339.119 264.77C355.42 269.989 373.033 294.734 346.118 306.629C323.982 316.411 334.987 323.398 320.353 335.116C305.719 346.835 283.616 347.664 274.916 327.978C271.649 320.585 267.509 309.119 254.487 295.526Z" stroke="#B21B20" stroke-opacity="0.37"/>
<path d="M67.9742 291.069C-1.49038 209.833 98.0401 152.858 186.105 148.147C237.12 143.485 246.717 85.2484 309.109 79.3419C372.895 73.3046 332.914 158.702 428.978 151.724C525.307 144.831 543.99 294.106 470.468 328.378C397.38 362.459 427.704 376.135 376.631 458.663C325.557 541.19 172.149 525.543 169.147 437.471C166.638 350.516 143.585 379.44 67.9742 291.069Z" stroke="#B21B20" stroke-opacity="0.37"/>
<path d="M86.3819 290.971C23.082 217.043 113.617 163.468 194.497 159.31C241.897 155.19 251.589 101.817 308.681 96.4134C368.557 90.7479 331.951 168.336 419.749 162.485C508.075 156.803 526.651 293.625 457.79 325.66C389.797 357.31 418.189 370.318 370.759 445.764C323.33 521.211 183.052 507.211 179.48 425.978C176.896 346.979 155.734 371.864 86.3819 290.971Z" stroke="#B21B20" stroke-opacity="0.37"/>
<path d="M104.791 290.873C47.6554 224.252 129.195 174.078 202.891 170.474C246.676 166.896 256.462 118.386 308.253 113.485C364.221 108.191 330.99 177.97 410.521 173.245C490.844 168.774 509.313 293.144 445.112 322.941C382.215 352.162 408.675 364.5 364.889 432.866C321.103 501.231 193.956 488.88 189.814 414.484C187.154 343.442 167.884 364.288 104.791 290.873Z" stroke="#B21B20" stroke-opacity="0.37"/>
<path d="M123.199 290.775C72.2286 231.462 144.772 184.688 211.285 181.638C251.454 178.602 261.336 134.956 307.825 130.557C359.885 125.635 330.028 187.605 401.292 184.007C473.612 180.747 491.974 292.664 432.434 320.223C374.632 347.014 399.16 358.683 359.018 419.968C318.877 481.253 204.86 470.549 200.149 402.992C197.413 339.906 180.033 356.713 123.199 290.775Z" stroke="#B21B20" stroke-opacity="0.37"/>
<path d="M141.759 291.018C96.9531 239.013 160.501 195.639 219.83 193.143C256.383 190.649 266.36 151.866 307.549 147.97C355.7 143.42 329.218 197.58 392.214 195.109C456.532 193.06 474.787 292.524 419.908 317.845C367.201 342.206 389.797 353.207 353.299 407.411C316.801 461.614 215.915 452.558 210.634 391.84C207.822 336.71 192.334 349.479 141.759 291.018Z" stroke="#B21B20" stroke-opacity="0.37"/>
<path d="M160.497 291.664C121.855 246.966 176.407 206.993 228.553 205.05C261.49 203.098 271.562 169.179 307.45 165.785C351.692 161.607 328.585 207.958 383.315 206.613C439.629 205.776 457.778 292.787 407.559 315.87C359.947 337.802 380.612 348.133 347.758 395.256C314.904 442.379 227.148 434.97 221.297 381.091C218.41 333.917 204.813 342.646 160.497 291.664Z" stroke="#B21B20" stroke-opacity="0.37"/>
<path d="M179.245 292.333C146.768 254.942 192.324 218.369 237.286 216.98C266.608 215.57 276.775 186.515 307.362 183.623C347.696 179.816 327.963 218.358 374.426 218.141C422.737 218.515 440.779 293.072 395.221 313.918C352.704 333.42 371.437 343.082 342.227 383.124C313.017 423.166 238.392 417.405 231.971 370.364C229.007 331.146 217.302 335.837 179.245 292.333Z" stroke="#B21B20" stroke-opacity="0.37"/>
<path d="M198.008 293.033C171.696 262.949 208.256 229.777 246.034 228.942C271.74 228.073 282.003 203.882 307.288 201.493C343.714 198.058 327.355 228.791 365.551 229.7C405.86 231.285 423.795 293.39 382.898 311.997C345.476 329.069 362.277 338.063 336.711 371.024C311.145 403.985 249.65 399.872 242.66 359.669C239.62 328.408 229.806 329.059 198.008 293.033Z" stroke="#B21B20" stroke-opacity="0.37"/>
<path d="M216.793 293.78C196.646 271.004 224.211 241.232 254.805 240.951C276.895 240.624 287.253 221.296 307.237 219.41C339.754 216.346 326.77 239.27 356.699 241.306C389.005 244.102 406.833 293.754 370.597 310.124C338.27 324.766 353.139 333.091 331.217 358.971C309.295 384.851 260.931 382.385 253.37 349.021C250.255 325.716 242.332 322.329 216.793 293.78Z" stroke="#B21B20" stroke-opacity="0.37"/>
<path d="M235.612 294.599C221.629 279.13 240.198 252.758 263.609 253.031C282.083 253.246 292.536 238.782 307.219 237.398C335.828 234.706 326.219 249.821 347.881 252.983C372.184 256.991 389.904 294.19 358.329 308.322C331.098 320.534 344.034 328.19 325.756 346.989C307.478 365.788 272.245 364.97 264.115 338.445C260.923 323.096 254.892 315.669 235.612 294.599Z" stroke="#B21B20" stroke-opacity="0.37"/>
</svg>
